<svg width="1651" height="1083" viewBox="0 0 1651 1083" fill="none" xmlns="http://www.w3.org/2000/svg">
<mask id="mask0_48_179" style="mask-type:alpha" maskUnits="userSpaceOnUse" x="0" y="0" width="1652" height="1083">
<rect width="1652" height="1083" fill="url(#paint0_linear_48_179)"/>
</mask>
<g mask="url(#mask0_48_179)">
<g opacity="0.8" filter="url(#filter0_f_48_179)">
<rect x="603" y="73" width="1417" height="1231" rx="615.5" fill="#7849F1"/>
</g>
</g>
<g opacity="0.5">
<rect x="1333" y="519" width="1" height="560" fill="white"/>
<rect x="1499" y="324" width="1" height="755" fill="white"/>
<rect x="1181" y="400" width="1" height="679" fill="white"/>
<rect x="1017" y="400" width="1" height="679" fill="white"/>
<rect x="852" y="581" width="1" height="498" fill="white"/>
<rect x="723" y="826" width="1" height="928" transform="rotate(-90 723 826)" fill="white"/>
<rect x="585" y="979" width="1" height="1066" transform="rotate(-90 585 979)" fill="white"/>
<rect x="806" y="673" width="1" height="845" transform="rotate(-90 806 673)" fill="white"/>
<rect x="930" y="506" width="1" height="721" transform="rotate(-90 930 506)" fill="white"/>
<circle cx="1334" cy="826" r="5" fill="white"/>
<circle cx="1183" cy="826" r="5" fill="white"/>
<circle cx="1018" cy="826" r="5" fill="white"/>
<circle cx="1018" cy="673" r="5" fill="white"/>
<circle cx="853" cy="826" r="5" fill="white"/>
<circle cx="1334" cy="978" r="5" fill="white"/>
<circle cx="1183" cy="978" r="5" fill="white"/>
<circle cx="1018" cy="978" r="5" fill="white"/>
<circle cx="853" cy="978" r="5" fill="white"/>
<circle cx="1334" cy="673" r="5" fill="white"/>
<circle cx="1500" cy="825" r="5" fill="white"/>
<circle cx="1500" cy="977" r="5" fill="white"/>
<circle cx="1500" cy="672" r="5" fill="white"/>
<circle cx="1500" cy="506" r="5" fill="white"/>
</g>
<mask id="mask1_48_179" style="mask-type:alpha" maskUnits="userSpaceOnUse" x="509" y="230" width="1143" height="853">
<g opacity="0.3">
<rect x="509.306" y="230.566" width="0.634296" height="851.698" fill="white"/>
<rect x="521.991" y="230.566" width="0.634296" height="851.698" fill="white"/>
<rect x="534.677" y="230.566" width="0.634296" height="851.698" fill="white"/>
<rect x="547.363" y="230.566" width="0.634296" height="851.698" fill="white"/>
<rect x="560.049" y="230.566" width="0.634296" height="851.698" fill="white"/>
<rect x="572.735" y="230.566" width="0.634296" height="851.698" fill="white"/>
<rect x="585.421" y="230.566" width="0.634296" height="851.698" fill="white"/>
<rect x="598.107" y="230.566" width="0.634296" height="851.698" fill="white"/>
<rect x="610.793" y="230.566" width="0.634296" height="851.698" fill="white"/>
<rect x="623.479" y="230.566" width="0.634296" height="851.698" fill="white"/>
<rect x="636.165" y="230.566" width="0.634296" height="851.698" fill="white"/>
<rect x="648.85" y="230.566" width="0.634296" height="851.698" fill="white"/>
<rect x="661.536" y="230.566" width="0.634296" height="851.698" fill="white"/>
<rect x="674.222" y="230.566" width="0.634296" height="851.698" fill="white"/>
<rect x="686.908" y="230.566" width="0.634296" height="851.698" fill="white"/>
<rect x="699.594" y="230.566" width="0.634296" height="851.698" fill="white"/>
<rect x="712.28" y="230.566" width="0.634296" height="851.698" fill="white"/>
<rect x="724.966" y="230.566" width="0.634296" height="851.698" fill="white"/>
<rect x="737.652" y="230.566" width="0.634296" height="851.698" fill="white"/>
<rect x="750.338" y="230.566" width="0.634296" height="851.698" fill="white"/>
<rect x="763.024" y="230.566" width="0.634296" height="851.698" fill="white"/>
<rect x="775.71" y="230.566" width="0.634296" height="851.698" fill="white"/>
<rect x="788.396" y="230.566" width="0.634296" height="851.698" fill="white"/>
<rect x="801.082" y="230.566" width="0.634296" height="851.698" fill="white"/>
<rect x="813.768" y="230.566" width="0.634296" height="851.698" fill="white"/>
<rect x="826.453" y="230.566" width="0.634296" height="851.698" fill="white"/>
<rect x="839.14" y="230.566" width="0.634296" height="851.698" fill="white"/>
<rect x="851.825" y="230.566" width="0.634296" height="851.698" fill="white"/>
<rect x="864.511" y="230.566" width="0.634296" height="851.698" fill="white"/>
<rect x="877.197" y="230.566" width="0.634296" height="851.698" fill="white"/>
<rect x="889.883" y="230.566" width="0.634296" height="851.698" fill="white"/>
<rect x="902.569" y="230.566" width="0.634296" height="851.698" fill="white"/>
<rect x="915.255" y="230.566" width="0.634296" height="851.698" fill="white"/>
<rect x="927.941" y="230.566" width="0.634296" height="851.698" fill="white"/>
<rect x="940.627" y="230.566" width="0.634296" height="851.698" fill="white"/>
<rect x="953.313" y="230.566" width="0.634296" height="851.698" fill="white"/>
<rect x="965.999" y="230.566" width="0.634296" height="851.698" fill="white"/>
<rect x="978.684" y="230.566" width="0.634296" height="851.698" fill="white"/>
<rect x="991.371" y="230.566" width="0.634296" height="851.698" fill="white"/>
<rect x="1004.06" y="230.566" width="0.634296" height="851.698" fill="white"/>
<rect x="1016.74" y="230.566" width="0.634296" height="851.698" fill="white"/>
<rect x="1029.43" y="230.566" width="0.634296" height="851.698" fill="white"/>
<rect x="1042.11" y="230.566" width="0.634296" height="851.698" fill="white"/>
<rect x="1054.8" y="230.566" width="0.634296" height="851.698" fill="white"/>
<rect x="1067.49" y="230.566" width="0.634296" height="851.698" fill="white"/>
<rect x="1080.17" y="230.566" width="0.634296" height="851.698" fill="white"/>
<rect x="1092.86" y="230.566" width="0.634296" height="851.698" fill="white"/>
<rect x="1105.54" y="230.566" width="0.634296" height="851.698" fill="white"/>
<rect x="1118.23" y="230.566" width="0.634296" height="851.698" fill="white"/>
<rect x="1130.92" y="230.566" width="0.634296" height="851.698" fill="white"/>
<rect x="1143.6" y="230.566" width="0.634296" height="851.698" fill="white"/>
<rect x="1156.29" y="230.566" width="0.634296" height="851.698" fill="white"/>
<rect x="1168.97" y="230.566" width="0.634296" height="851.698" fill="white"/>
<rect x="1181.66" y="230.566" width="0.634296" height="851.698" fill="white"/>
<rect x="1194.35" y="230.566" width="0.634296" height="851.698" fill="white"/>
<rect x="1207.03" y="230.566" width="0.634296" height="851.698" fill="white"/>
<rect x="1219.72" y="230.566" width="0.634296" height="851.698" fill="white"/>
<rect x="1232.4" y="230.566" width="0.634296" height="851.698" fill="white"/>
<rect x="1245.09" y="230.566" width="0.634296" height="851.698" fill="white"/>
<rect x="1257.77" y="230.566" width="0.634296" height="851.698" fill="white"/>
<rect x="1270.46" y="230.566" width="0.634296" height="851.698" fill="white"/>
<rect x="1283.15" y="230.566" width="0.634296" height="851.698" fill="white"/>
<rect x="1295.83" y="230.566" width="0.634296" height="851.698" fill="white"/>
<rect x="1308.52" y="230.566" width="0.634296" height="851.698" fill="white"/>
<rect x="1321.2" y="230.566" width="0.634296" height="851.698" fill="white"/>
<rect x="1333.89" y="230.566" width="0.634296" height="851.698" fill="white"/>
<rect x="1346.58" y="230.566" width="0.634296" height="851.698" fill="white"/>
<rect x="1359.26" y="230.566" width="0.634296" height="851.698" fill="white"/>
<rect x="1371.95" y="230.566" width="0.634296" height="851.698" fill="white"/>
<rect x="1384.63" y="230.566" width="0.634296" height="851.698" fill="white"/>
<rect x="1397.32" y="230.566" width="0.634296" height="851.698" fill="white"/>
<rect x="1410.01" y="230.566" width="0.634296" height="851.698" fill="white"/>
<rect x="1422.69" y="230.566" width="0.634296" height="851.698" fill="white"/>
<rect x="1435.38" y="230.566" width="0.634296" height="851.698" fill="white"/>
<rect x="1448.06" y="230.566" width="0.634296" height="851.698" fill="white"/>
<rect x="1460.75" y="230.566" width="0.634296" height="851.698" fill="white"/>
<rect x="1473.44" y="230.566" width="0.634296" height="851.698" fill="white"/>
<rect x="1486.12" y="230.566" width="0.634296" height="851.698" fill="white"/>
<rect x="1498.81" y="230.566" width="0.634296" height="851.698" fill="white"/>
<rect x="1511.49" y="230.566" width="0.634296" height="851.698" fill="white"/>
<rect x="1524.18" y="230.566" width="0.634296" height="851.698" fill="white"/>
<rect x="1536.87" y="230.566" width="0.634296" height="851.698" fill="white"/>
<rect x="1549.55" y="230.566" width="0.634296" height="851.698" fill="white"/>
<rect x="1562.24" y="230.566" width="0.634296" height="851.698" fill="white"/>
<rect x="1574.92" y="230.566" width="0.634296" height="851.698" fill="white"/>
<rect x="1587.61" y="230.566" width="0.634296" height="851.698" fill="white"/>
<rect x="1600.29" y="230.566" width="0.634296" height="851.698" fill="white"/>
<rect x="1612.98" y="230.566" width="0.634296" height="851.698" fill="white"/>
<rect x="1625.67" y="230.566" width="0.634296" height="851.698" fill="white"/>
<rect x="1638.35" y="230.566" width="0.634296" height="851.698" fill="white"/>
<rect x="509.305" y="1073.27" width="0.946332" height="570.867" transform="rotate(-90 509.305 1073.27)" fill="white"/>
<rect x="509.305" y="1054.35" width="0.946332" height="570.867" transform="rotate(-90 509.305 1054.35)" fill="white"/>
<rect x="509.305" y="1035.42" width="0.946332" height="570.867" transform="rotate(-90 509.305 1035.42)" fill="white"/>
<rect x="509.305" y="1016.49" width="0.946332" height="570.867" transform="rotate(-90 509.305 1016.49)" fill="white"/>
<rect x="509.305" y="997.568" width="0.946332" height="570.867" transform="rotate(-90 509.305 997.568)" fill="white"/>
<rect x="509.305" y="978.641" width="0.946332" height="570.867" transform="rotate(-90 509.305 978.641)" fill="white"/>
<rect x="509.305" y="959.714" width="0.946332" height="570.867" transform="rotate(-90 509.305 959.714)" fill="white"/>
<rect x="509.305" y="940.788" width="0.946332" height="570.867" transform="rotate(-90 509.305 940.788)" fill="white"/>
<rect x="509.305" y="921.861" width="0.946332" height="570.867" transform="rotate(-90 509.305 921.861)" fill="white"/>
<rect x="509.305" y="902.935" width="0.946332" height="570.867" transform="rotate(-90 509.305 902.935)" fill="white"/>
<rect x="509.305" y="884.008" width="0.946332" height="570.867" transform="rotate(-90 509.305 884.008)" fill="white"/>
<rect x="509.305" y="865.081" width="0.946332" height="570.867" transform="rotate(-90 509.305 865.081)" fill="white"/>
<rect x="509.305" y="846.155" width="0.946332" height="570.867" transform="rotate(-90 509.305 846.155)" fill="white"/>
<rect x="509.305" y="827.228" width="0.946332" height="570.867" transform="rotate(-90 509.305 827.228)" fill="white"/>
<rect x="509.305" y="808.301" width="0.946332" height="570.867" transform="rotate(-90 509.305 808.301)" fill="white"/>
<rect x="509.305" y="789.375" width="0.946332" height="570.867" transform="rotate(-90 509.305 789.375)" fill="white"/>
<rect x="509.305" y="770.448" width="0.946332" height="570.867" transform="rotate(-90 509.305 770.448)" fill="white"/>
<rect x="509.305" y="751.521" width="0.946332" height="570.867" transform="rotate(-90 509.305 751.521)" fill="white"/>
<rect x="509.305" y="732.595" width="0.946332" height="570.867" transform="rotate(-90 509.305 732.595)" fill="white"/>
<rect x="509.305" y="713.668" width="0.946332" height="570.867" transform="rotate(-90 509.305 713.668)" fill="white"/>
<rect x="509.305" y="694.741" width="0.946332" height="570.867" transform="rotate(-90 509.305 694.741)" fill="white"/>
<rect x="509.305" y="675.815" width="0.946332" height="570.867" transform="rotate(-90 509.305 675.815)" fill="white"/>
<rect x="509.305" y="656.888" width="0.946332" height="570.867" transform="rotate(-90 509.305 656.888)" fill="white"/>
<rect x="509.305" y="637.962" width="0.946332" height="570.867" transform="rotate(-90 509.305 637.962)" fill="white"/>
<rect x="509.305" y="619.035" width="0.946332" height="570.867" transform="rotate(-90 509.305 619.035)" fill="white"/>
<rect x="509.305" y="600.108" width="0.946332" height="570.867" transform="rotate(-90 509.305 600.108)" fill="white"/>
<rect x="509.305" y="581.182" width="0.946332" height="570.867" transform="rotate(-90 509.305 581.182)" fill="white"/>
<rect x="509.305" y="562.255" width="0.946332" height="570.867" transform="rotate(-90 509.305 562.255)" fill="white"/>
<rect x="509.305" y="543.329" width="0.946332" height="570.867" transform="rotate(-90 509.305 543.329)" fill="white"/>
<rect x="509.305" y="524.402" width="0.946332" height="570.867" transform="rotate(-90 509.305 524.402)" fill="white"/>
<rect x="509.305" y="505.475" width="0.946332" height="570.867" transform="rotate(-90 509.305 505.475)" fill="white"/>
<rect x="509.305" y="486.549" width="0.946332" height="570.867" transform="rotate(-90 509.305 486.549)" fill="white"/>
<rect x="509.305" y="467.622" width="0.946332" height="570.867" transform="rotate(-90 509.305 467.622)" fill="white"/>
<rect x="509.305" y="448.695" width="0.946332" height="570.867" transform="rotate(-90 509.305 448.695)" fill="white"/>
<rect x="509.305" y="429.769" width="0.946332" height="570.867" transform="rotate(-90 509.305 429.769)" fill="white"/>
<rect x="509.305" y="410.842" width="0.946332" height="570.867" transform="rotate(-90 509.305 410.842)" fill="white"/>
<rect x="509.305" y="391.916" width="0.946332" height="570.867" transform="rotate(-90 509.305 391.916)" fill="white"/>
<rect x="509.305" y="372.989" width="0.946332" height="570.867" transform="rotate(-90 509.305 372.989)" fill="white"/>
<rect x="509.305" y="354.062" width="0.946332" height="570.867" transform="rotate(-90 509.305 354.062)" fill="white"/>
<rect x="509.305" y="335.135" width="0.946332" height="570.867" transform="rotate(-90 509.305 335.135)" fill="white"/>
<rect x="509.305" y="316.209" width="0.946332" height="570.867" transform="rotate(-90 509.305 316.209)" fill="white"/>
<rect x="509.305" y="297.282" width="0.946332" height="570.867" transform="rotate(-90 509.305 297.282)" fill="white"/>
<rect x="509.305" y="278.356" width="0.946332" height="570.867" transform="rotate(-90 509.305 278.356)" fill="white"/>
<rect x="509.305" y="259.429" width="0.946332" height="570.867" transform="rotate(-90 509.305 259.429)" fill="white"/>
<rect x="509.305" y="240.502" width="0.946332" height="570.867" transform="rotate(-90 509.305 240.502)" fill="white"/>
<rect x="1080.17" y="1073.27" width="0.946332" height="570.867" transform="rotate(-90 1080.17 1073.27)" fill="white"/>
<rect x="1080.17" y="1054.35" width="0.946332" height="570.867" transform="rotate(-90 1080.17 1054.35)" fill="white"/>
<rect x="1080.17" y="1035.42" width="0.946332" height="570.867" transform="rotate(-90 1080.17 1035.42)" fill="white"/>
<rect x="1080.17" y="1016.49" width="0.946332" height="570.867" transform="rotate(-90 1080.17 1016.49)" fill="white"/>
<rect x="1080.17" y="997.568" width="0.946332" height="570.867" transform="rotate(-90 1080.17 997.568)" fill="white"/>
<rect x="1080.17" y="978.641" width="0.946332" height="570.867" transform="rotate(-90 1080.17 978.641)" fill="white"/>
<rect x="1080.17" y="959.714" width="0.946332" height="570.867" transform="rotate(-90 1080.17 959.714)" fill="white"/>
<rect x="1080.17" y="940.788" width="0.946332" height="570.867" transform="rotate(-90 1080.17 940.788)" fill="white"/>
<rect x="1080.17" y="921.861" width="0.946332" height="570.867" transform="rotate(-90 1080.17 921.861)" fill="white"/>
<rect x="1080.17" y="902.935" width="0.946332" height="570.867" transform="rotate(-90 1080.17 902.935)" fill="white"/>
<rect x="1080.17" y="884.008" width="0.946332" height="570.867" transform="rotate(-90 1080.17 884.008)" fill="white"/>
<rect x="1080.17" y="865.081" width="0.946332" height="570.867" transform="rotate(-90 1080.17 865.081)" fill="white"/>
<rect x="1080.17" y="846.155" width="0.946332" height="570.867" transform="rotate(-90 1080.17 846.155)" fill="white"/>
<rect x="1080.17" y="827.228" width="0.946332" height="570.867" transform="rotate(-90 1080.17 827.228)" fill="white"/>
<rect x="1080.17" y="808.301" width="0.946332" height="570.867" transform="rotate(-90 1080.17 808.301)" fill="white"/>
<rect x="1080.17" y="789.375" width="0.946332" height="570.867" transform="rotate(-90 1080.17 789.375)" fill="white"/>
<rect x="1080.17" y="770.448" width="0.946332" height="570.867" transform="rotate(-90 1080.17 770.448)" fill="white"/>
<rect x="1080.17" y="751.521" width="0.946332" height="570.867" transform="rotate(-90 1080.17 751.521)" fill="white"/>
<rect x="1080.17" y="732.595" width="0.946332" height="570.867" transform="rotate(-90 1080.17 732.595)" fill="white"/>
<rect x="1080.17" y="713.668" width="0.946332" height="570.867" transform="rotate(-90 1080.17 713.668)" fill="white"/>
<rect x="1080.17" y="694.741" width="0.946332" height="570.867" transform="rotate(-90 1080.17 694.741)" fill="white"/>
<rect x="1080.17" y="675.815" width="0.946332" height="570.867" transform="rotate(-90 1080.17 675.815)" fill="white"/>
<rect x="1080.17" y="656.888" width="0.946332" height="570.867" transform="rotate(-90 1080.17 656.888)" fill="white"/>
<rect x="1080.17" y="637.962" width="0.946332" height="570.867" transform="rotate(-90 1080.17 637.962)" fill="white"/>
<rect x="1080.17" y="619.035" width="0.946332" height="570.867" transform="rotate(-90 1080.17 619.035)" fill="white"/>
<rect x="1080.17" y="600.108" width="0.946332" height="570.867" transform="rotate(-90 1080.17 600.108)" fill="white"/>
<rect x="1080.17" y="581.182" width="0.946332" height="570.867" transform="rotate(-90 1080.17 581.182)" fill="white"/>
<rect x="1080.17" y="562.255" width="0.946332" height="570.867" transform="rotate(-90 1080.17 562.255)" fill="white"/>
<rect x="1080.17" y="543.329" width="0.946332" height="570.867" transform="rotate(-90 1080.17 543.329)" fill="white"/>
<rect x="1080.17" y="524.402" width="0.946332" height="570.867" transform="rotate(-90 1080.17 524.402)" fill="white"/>
<rect x="1080.17" y="505.475" width="0.946332" height="570.867" transform="rotate(-90 1080.17 505.475)" fill="white"/>
<rect x="1080.17" y="486.549" width="0.946332" height="570.867" transform="rotate(-90 1080.17 486.549)" fill="white"/>
<rect x="1080.17" y="467.622" width="0.946332" height="570.867" transform="rotate(-90 1080.17 467.622)" fill="white"/>
<rect x="1080.17" y="448.695" width="0.946332" height="570.867" transform="rotate(-90 1080.17 448.695)" fill="white"/>
<rect x="1080.17" y="429.769" width="0.946332" height="570.867" transform="rotate(-90 1080.17 429.769)" fill="white"/>
<rect x="1080.17" y="410.842" width="0.946332" height="570.867" transform="rotate(-90 1080.17 410.842)" fill="white"/>
<rect x="1080.17" y="391.916" width="0.946332" height="570.867" transform="rotate(-90 1080.17 391.916)" fill="white"/>
<rect x="1080.17" y="372.989" width="0.946332" height="570.867" transform="rotate(-90 1080.17 372.989)" fill="white"/>
<rect x="1080.17" y="354.062" width="0.946332" height="570.867" transform="rotate(-90 1080.17 354.062)" fill="white"/>
<rect x="1080.17" y="335.135" width="0.946332" height="570.867" transform="rotate(-90 1080.17 335.135)" fill="white"/>
<rect x="1080.17" y="316.209" width="0.946332" height="570.867" transform="rotate(-90 1080.17 316.209)" fill="white"/>
<rect x="1080.17" y="297.282" width="0.946332" height="570.867" transform="rotate(-90 1080.17 297.282)" fill="white"/>
<rect x="1080.17" y="278.356" width="0.946332" height="570.867" transform="rotate(-90 1080.17 278.356)" fill="white"/>
<rect x="1080.17" y="259.429" width="0.946332" height="570.867" transform="rotate(-90 1080.17 259.429)" fill="white"/>
<rect x="1080.17" y="240.502" width="0.946332" height="570.867" transform="rotate(-90 1080.17 240.502)" fill="white"/>
</g>
</mask>
<g mask="url(#mask1_48_179)">
<path d="M492.646 1081.05C492.646 1062.61 496.811 1023.08 496.811 1004.64C584.868 974.77 615.688 954.541 643.772 921.936C700.533 855.774 757.651 747.148 767.29 723.23C789.304 668.968 798.943 630.294 839.164 602.33C866.89 582.933 861.297 586.604 883.55 561.971C909.848 533.055 921.272 514.748 948.76 468.696C959.827 450.252 977.2 421.217 1011.71 401.939C1021.82 396.347 1062.64 375.165 1108.69 385.518C1146.29 393.967 1177.71 393.115 1250.65 457.254C1327.88 525.082 1325.38 520.68 1336.93 517.943C1355.49 513.302 1365.72 520.579 1388.45 480.001C1430.46 404.795 1420.7 381.353 1451.4 360.291C1477.7 342.203 1496.03 339.329 1526.73 312.673C1546 295.895 1541.72 302.22 1559.69 287.227C1597.77 255.693 1646.91 258.905 1655.84 259.5C1684.75 261.404 1707.24 271.638 1721.17 279.611C1699.39 548.9 1677.61 818.07 1655.84 1087.36C1268.03 1085.22 880.337 1083.08 492.646 1081.05Z" fill="#C4C4C4"/>
</g>
<g filter="url(#filter1_ii_48_179)">
<path d="M509 1001.26C524.708 992.335 540.178 983.646 555.529 974.481L566.953 967.578C570.642 965.197 574.569 962.935 578.258 960.436C585.755 955.556 593.133 950.676 600.273 945.438C614.672 935.083 628.595 924.014 641.804 912.23C645.136 909.254 648.349 906.278 651.562 903.303C654.775 900.327 658.107 897.113 661.319 894.138C667.745 887.948 673.933 881.64 680.002 875.212C692.021 862.357 703.445 848.788 713.679 834.505C716.297 830.934 718.677 827.244 721.295 823.673L724.865 818.198L726.65 815.46L728.435 812.604L731.886 807.009L735.218 801.296L736.884 798.439L738.431 795.583L741.525 789.869C745.452 782.133 749.022 774.277 752.116 766.302C755.21 758.208 757.828 749.876 760.684 741.187C763.54 732.617 766.634 723.809 769.966 715.239L772.584 708.812L773.893 705.598L775.321 702.503L778.177 696.195L781.152 690.005L784.127 683.816L787.102 677.746L792.933 665.605C796.86 657.511 800.906 649.298 805.071 641.204C809.236 633.11 813.758 625.016 818.518 617.042C823.278 609.067 828.395 601.33 833.988 593.712C845.174 578.596 858.383 564.312 874.686 553.243C876.709 551.933 878.732 550.505 880.874 549.315C881.945 548.72 883.016 548.006 884.087 547.41L887.3 545.625L888.966 544.792L890.632 543.959L893.964 542.411C895.035 541.935 896.225 541.459 897.415 540.983C898.605 540.507 899.676 540.031 900.866 539.555L904.436 538.245C905.626 537.769 906.816 537.531 908.006 537.174C910.386 536.46 912.766 535.865 915.265 535.27C920.144 534.198 925.023 533.246 929.902 532.77C949.537 530.628 969.409 533.127 987.973 539.198C1006.42 545.268 1023.55 554.79 1038.79 566.217C1046.4 571.93 1053.66 578.239 1060.33 584.785C1067.11 591.332 1073.3 598.235 1079.37 605.139C1091.38 619.065 1102.45 633.229 1113.99 646.322C1116.85 649.655 1119.82 652.869 1122.8 655.964C1125.77 659.058 1128.75 662.153 1131.72 664.891C1137.79 670.485 1144.34 675.603 1151.48 680.483C1155.05 682.983 1158.62 685.363 1162.31 687.744L1167.9 691.315L1173.37 694.767C1180.63 699.29 1187.89 703.336 1195.15 706.193C1202.41 708.931 1209.43 710.359 1216.45 710.121C1223.71 709.883 1231.21 708.098 1238.47 705.241C1245.73 702.384 1252.63 698.456 1259.17 693.695C1265.6 689.053 1271.67 683.459 1277.38 677.388C1288.69 665.248 1298.44 650.845 1307.84 635.967C1317.25 621.088 1326.17 605.853 1334.5 590.26C1351.28 559.075 1366.04 526.7 1379.6 493.848C1386.38 477.303 1392.81 460.877 1399.36 443.976C1405.9 427.074 1412.8 410.053 1421.37 393.389C1425.65 385.057 1430.29 376.844 1435.53 368.869C1440.77 360.894 1446.6 353.158 1453.02 346.016C1459.45 338.755 1466.47 332.09 1474.21 326.019C1481.94 319.949 1490.39 314.593 1499.43 310.308C1508.48 306.023 1518.12 302.809 1527.99 300.904L1535.49 299.714L1543.11 299.119C1544.42 299 1545.61 299 1546.91 299H1550.72C1553.22 299.119 1555.84 299.119 1558.34 299.476C1568.45 300.428 1578.33 302.571 1587.73 305.904C1597.13 309.355 1606.06 313.64 1614.27 318.878C1630.81 329.233 1645.09 342.326 1657.35 356.728C1669.6 371.131 1680.19 386.842 1689 403.387L1668.06 414.695C1663.89 407.196 1659.49 399.816 1654.61 392.794C1649.73 385.771 1644.49 378.986 1638.9 372.559C1627.72 359.823 1615.1 348.396 1601.18 339.707C1587.26 331.018 1571.9 325.424 1556.2 324.115C1554.29 323.877 1552.27 323.877 1550.37 323.758H1547.39C1546.44 323.758 1545.49 323.758 1544.42 323.877L1538.58 324.353L1532.75 325.305C1525.02 326.852 1517.52 329.352 1510.38 332.804C1503.24 336.256 1496.34 340.541 1490.03 345.659C1483.61 350.777 1477.78 356.49 1472.18 362.68C1466.71 368.869 1461.59 375.535 1457.07 382.557C1452.43 389.58 1448.26 397.079 1444.34 404.696C1436.48 420.051 1429.94 436.358 1423.39 452.903C1416.97 469.566 1410.42 486.587 1403.52 503.251C1389.72 536.698 1374.6 569.907 1357.35 602.044C1348.78 618.113 1339.62 633.943 1329.74 649.417C1319.98 664.772 1309.51 680.364 1296.3 694.528C1283.21 708.574 1267.03 721.191 1247.99 728.57C1238.47 732.26 1228.23 734.76 1217.52 734.998C1212.17 735.117 1206.58 734.641 1201.34 733.688C1196.1 732.617 1190.99 731.07 1186.23 729.284C1176.71 725.595 1168.26 720.714 1160.28 715.715L1154.45 712.025L1148.74 708.336C1144.93 705.836 1141.13 703.217 1137.2 700.599C1129.58 695.243 1121.97 689.291 1114.83 682.626C1111.26 679.293 1108.04 675.841 1104.83 672.508C1101.62 669.057 1098.52 665.605 1095.55 662.153C1083.41 648.227 1072.46 633.943 1061.04 620.612C1049.62 607.281 1037.83 595.021 1024.39 584.785C1011.06 574.549 996.303 566.336 980.714 561.099C965.125 555.861 948.585 553.719 932.52 555.385C928.474 555.742 924.547 556.457 920.62 557.29C918.716 557.766 916.693 558.242 914.789 558.837C913.837 559.075 912.885 559.313 911.933 559.67L909.077 560.622C908.125 560.98 907.173 561.337 906.34 561.694C905.388 562.051 904.436 562.408 903.603 562.884L900.866 564.193L899.438 564.788L898.129 565.503L895.392 566.931C894.559 567.407 893.607 568.002 892.774 568.478C890.989 569.431 889.323 570.621 887.657 571.692C874.091 580.738 862.31 592.879 851.957 606.567C841.604 620.136 832.798 635.253 824.349 650.845C820.184 658.582 816.138 666.557 812.092 674.532L806.023 686.554L802.929 692.624L799.954 698.575L796.979 704.527L794.242 710.478L792.814 713.454L791.505 716.429L788.887 722.5C785.555 730.594 782.461 738.688 779.486 747.139C776.511 755.471 773.655 764.279 770.085 772.849C766.515 781.538 762.469 789.988 757.947 798.082L754.496 804.153L752.711 807.128L750.926 810.104L747.356 815.937L743.548 821.65L741.644 824.506L739.74 827.363L735.813 833.076C733.076 836.766 730.458 840.575 727.602 844.146C722.009 851.407 716.178 858.548 710.228 865.452C704.159 872.356 697.971 879.021 691.545 885.568C685.119 891.995 678.455 898.304 671.791 904.374C668.459 907.469 665.127 910.444 661.676 913.42C658.226 916.396 654.775 919.371 651.324 922.347C637.282 934.012 622.764 944.962 607.77 955.08C600.273 960.198 592.538 965.078 584.803 969.72C580.876 972.101 576.949 974.362 573.022 976.624C569.095 978.885 565.049 980.909 561.003 983.051C544.938 991.383 528.159 998.525 510.904 1004L509 1001.26Z" fill="#D4EBFF"/>
</g>
<g opacity="0.6" filter="url(#filter2_f_48_179)">
<path d="M640 943.287C663.326 924.51 685.937 904.782 705.811 882.678C715.689 871.626 724.853 859.979 732.945 847.739C734.968 844.649 736.991 841.559 738.896 838.35C740.8 835.142 742.704 832.052 744.489 828.843C748.178 822.426 751.748 815.889 755.2 809.353C762.102 796.162 768.648 782.733 775.431 769.304C782.333 755.875 789.236 742.446 797.209 729.373C805.064 716.301 813.633 703.585 823.272 691.582L826.842 687.066L830.651 682.669C833.15 679.698 835.768 676.964 838.386 674.112C843.742 668.527 849.335 663.06 855.285 658.069C861.117 652.958 867.543 648.324 873.97 643.926L878.968 640.837L881.467 639.292L884.085 637.866L889.322 635.013L894.677 632.399C901.817 628.952 909.315 626.219 917.05 624.08C924.786 621.941 932.759 620.515 940.971 620.158C945.017 619.921 949.182 619.921 953.348 620.277C957.513 620.634 961.559 621.109 965.606 622.06C973.698 623.842 981.434 626.694 988.693 630.26C1003.21 637.271 1015.71 646.541 1027.85 655.216C1030.94 657.355 1033.92 659.613 1036.89 661.634C1039.87 663.773 1042.96 665.912 1046.05 667.932C1049.15 669.953 1052.12 672.092 1055.34 673.993C1058.43 676.013 1061.53 678.034 1064.74 679.816C1077.24 687.541 1090.21 694.672 1103.3 701.089C1129.6 714.043 1157.21 724.263 1185.65 730.68C1192.79 732.344 1199.81 733.651 1206.83 734.721C1213.86 735.672 1221 736.266 1227.9 736.385C1241.82 736.504 1255.51 734.483 1267.05 728.898C1268.48 728.185 1269.91 727.353 1271.22 726.64C1272.65 725.927 1273.96 724.857 1275.38 724.025C1278.12 722.124 1280.86 720.104 1283.36 717.964C1288.47 713.567 1293.23 708.576 1297.64 703.228C1306.44 692.414 1313.82 680.054 1321.08 667.1L1332.03 647.492C1335.72 640.955 1339.41 634.419 1343.22 627.883C1350.72 614.81 1358.45 601.857 1366.31 588.903C1374.28 576.068 1382.37 563.233 1390.82 550.636C1399.27 538.277 1407.96 525.798 1417.12 513.677C1426.17 501.555 1435.57 489.552 1445.45 477.906L1449.13 473.508L1452.94 469.23C1455.44 466.378 1457.94 463.526 1460.56 460.674C1465.68 454.969 1471.15 449.384 1476.98 443.917C1488.65 433.102 1502.21 423.12 1518.75 417.178C1522.92 415.752 1527.32 414.682 1531.61 413.969C1536.01 413.375 1540.41 412.899 1544.82 413.018C1549.22 413.018 1553.5 413.375 1557.79 414.088C1559.93 414.326 1561.95 414.801 1564.1 415.276C1566.12 415.752 1568.26 416.227 1570.28 416.821C1586.47 421.337 1600.87 429.181 1614.08 437.856C1627.29 446.65 1639.31 456.633 1650.62 467.329C1673.23 488.601 1692.62 512.845 1710 538.039L1690.36 551.468C1682.03 539.346 1673.23 527.7 1663.94 516.529C1654.66 505.358 1644.66 494.781 1634.19 484.798C1623.72 474.816 1612.53 465.665 1600.87 457.703C1589.21 449.859 1576.71 443.323 1563.98 439.758C1551.24 436.073 1538.39 435.717 1526.85 439.758C1523.99 440.827 1521.02 442.016 1518.16 443.56C1515.3 445.105 1512.45 446.769 1509.59 448.552C1504 452.236 1498.64 456.633 1493.52 461.387C1488.41 466.14 1483.41 471.369 1478.41 476.717C1475.91 479.45 1473.53 482.184 1471.03 484.917L1467.34 489.077L1463.77 493.236C1454.13 504.407 1444.97 515.935 1436.04 527.7C1427.12 539.465 1418.55 551.587 1410.22 563.828C1401.89 576.068 1393.8 588.546 1385.94 601.144C1382.01 607.442 1378.09 613.741 1374.28 620.158C1370.47 626.576 1366.66 632.874 1362.85 639.41C1359.05 645.828 1355.36 652.245 1351.67 658.782L1340.48 678.271C1332.86 691.463 1324.89 704.773 1314.66 717.251C1309.54 723.431 1303.83 729.373 1297.52 734.602C1294.31 737.217 1290.97 739.712 1287.52 742.089C1285.74 743.159 1284.07 744.347 1282.17 745.417C1280.26 746.367 1278.36 747.556 1276.45 748.388C1268.6 752.072 1260.51 754.449 1252.3 755.756C1244.08 757.182 1235.99 757.538 1227.9 757.42C1219.81 757.301 1211.95 756.469 1204.22 755.28C1196.48 754.092 1188.75 752.547 1181.25 750.764C1151.14 743.634 1122.22 732.463 1094.97 718.677C1067.6 704.892 1041.77 688.254 1017.49 670.19C1005.47 661.277 993.81 652.483 981.315 646.303C975.126 643.095 968.7 640.718 962.154 639.173C958.941 638.341 955.609 637.866 952.277 637.509C948.944 637.152 945.493 637.152 942.161 637.271C928.475 637.747 914.789 641.55 901.936 647.492L897.057 649.75L892.297 652.245L889.917 653.553L887.655 654.979L883.014 657.712C877.064 661.634 871.113 665.793 865.639 670.428C860.046 674.944 854.809 679.935 849.692 685.045C847.193 687.66 844.694 690.274 842.313 693.008L838.743 697.048L835.292 701.208C826.009 712.498 817.679 724.62 809.705 736.979C801.851 749.457 794.71 762.411 787.57 775.602C780.429 788.794 773.408 801.985 765.91 815.176C758.413 828.249 750.439 841.203 741.395 853.562C736.872 859.742 732.112 865.684 727.233 871.507C722.234 877.211 716.998 882.797 711.643 888.026C690.102 909.298 665.825 927.481 640.714 944L640 943.287Z" fill="#5322D5"/>
</g>
<g filter="url(#filter3_ii_48_179)">
<path d="M514 1003.05C547.176 992.705 579.044 978.675 609.366 962.029C639.688 945.503 668.702 926.479 696.051 905.316C709.726 894.734 722.925 883.677 735.53 872.025C748.253 860.373 760.263 848.126 771.797 835.404C774.651 832.194 777.386 828.984 780.24 825.655C782.975 822.326 785.71 819.116 788.326 815.668C789.634 814.003 790.942 812.339 792.25 810.674L796.055 805.561C798.552 802.113 800.93 798.547 803.427 794.98C805.924 791.413 808.422 787.965 810.8 784.398C813.059 780.831 815.556 777.264 817.815 773.697C822.334 766.444 826.615 759.073 830.658 751.582L833.63 745.994L836.484 740.287C838.387 736.482 840.052 732.559 841.835 728.754C845.165 721.026 848.494 713.179 851.229 705.094C852.775 701.17 853.964 697.009 855.391 692.966C856.699 688.924 858.007 684.881 859.196 680.72C861.693 672.516 863.953 664.193 866.331 655.87C870.849 639.106 875.606 622.104 880.957 605.22C886.308 588.337 892.61 571.692 899.745 555.284C906.879 538.995 914.846 523.063 923.527 507.487C932.207 492.031 941.482 476.812 951.47 462.188L955.157 456.599C956.346 454.697 957.773 452.914 958.962 451.13L966.691 440.311C967.999 438.527 969.426 436.744 970.734 434.96L974.896 429.61L979.058 424.26C980.485 422.476 981.911 420.812 983.338 419.147C994.873 405.355 1007.36 392.039 1021.98 380.387L1027.57 376.106C1028.52 375.393 1029.36 374.68 1030.43 373.966L1033.4 371.945C1035.42 370.637 1037.32 369.21 1039.46 368.021L1045.77 364.455C1054.45 359.936 1063.84 356.132 1074.07 354.229C1075.37 353.992 1076.56 353.873 1077.87 353.635C1079.18 353.397 1080.49 353.278 1081.68 353.159C1082.99 353.04 1084.17 352.922 1085.48 352.803L1089.17 352.684L1092.85 352.565L1096.54 352.684L1100.23 352.803L1103.91 353.04C1113.66 353.873 1123.18 355.775 1132.45 358.629C1150.88 364.336 1167.65 373.728 1182.63 384.31C1197.73 394.892 1211.29 406.901 1224.25 418.909C1237.21 431.037 1249.58 443.283 1262.06 454.697C1274.43 466.111 1287.27 476.455 1301.07 484.897C1314.74 493.22 1329.37 499.521 1344.35 502.137C1359.09 504.872 1374.43 503.801 1386.8 498.094C1392.86 495.241 1398.69 491.198 1404.04 485.967C1409.39 480.736 1414.39 474.672 1419.26 468.014C1424.14 461.355 1429.01 454.103 1434.01 446.969L1448.87 425.567L1508.21 340.2C1518.08 326.051 1528.07 311.308 1539.6 297.159C1545.31 290.025 1551.49 283.129 1558.27 276.59C1565.05 270.05 1572.42 263.868 1580.39 258.518C1588.35 253.048 1597.15 248.411 1605.71 244.725C1614.39 241.04 1623.43 237.948 1632.59 235.689C1637.11 234.5 1641.74 233.668 1646.38 232.955C1648.64 232.598 1651.02 232.241 1653.28 232.004C1655.66 231.766 1657.92 231.528 1660.29 231.409C1669.57 230.815 1678.84 230.815 1688 231.766L1687.52 255.545C1671 256.734 1654.94 258.755 1639.48 262.917C1624.15 267.078 1609.04 273.261 1596.44 281.94C1590.02 286.339 1583.95 291.452 1578.25 297.04C1572.54 302.628 1567.19 308.811 1561.96 315.231C1551.61 328.191 1541.98 342.34 1531.99 356.726L1472.53 442.689L1457.67 464.209L1450.18 474.91C1447.68 478.476 1445.07 482.162 1442.45 485.848C1437.1 493.22 1431.15 500.71 1423.9 507.606C1416.77 514.502 1408.2 520.923 1398.57 525.322C1388.94 529.721 1378.6 532.099 1368.49 532.931C1358.38 533.763 1348.27 533.169 1338.64 531.267C1319.26 527.7 1301.42 519.853 1285.49 509.984C1269.56 500.235 1255.29 488.464 1242.09 476.217C1229.01 464.09 1216.76 451.606 1204.27 439.835C1191.91 428.064 1179.3 416.888 1165.98 407.257C1152.67 397.627 1138.64 389.78 1123.77 385.024C1116.4 382.646 1108.79 381.1 1101.18 380.387L1098.32 380.149L1095.47 380.03L1092.62 379.911H1089.76C1085.84 379.911 1082.39 380.268 1078.82 380.862C1071.81 382.051 1064.91 384.667 1058.01 388.115L1052.9 390.85C1051.24 391.801 1049.57 392.99 1047.91 393.941L1045.41 395.487C1044.58 395.962 1043.74 396.676 1043.03 397.27L1038.16 400.837C1025.31 410.705 1013.66 422.714 1002.72 435.555C1001.29 437.1 999.986 438.646 998.559 440.311L994.635 445.304L990.711 450.298C989.403 451.963 987.976 453.508 986.787 455.292L979.177 465.517C977.868 467.3 976.561 468.965 975.371 470.629L971.804 475.861C952.303 504.039 934.704 533.407 920.435 564.32C913.3 579.776 906.879 595.59 901.409 611.76C898.555 619.845 896.058 628.049 893.442 636.252L885.951 661.221C883.454 669.544 880.838 677.985 878.103 686.427C876.795 690.588 875.249 694.869 873.822 699.03C872.276 703.191 870.849 707.353 869.185 711.514C865.974 719.837 862.407 728.041 858.602 736.126C856.58 740.168 854.797 744.211 852.656 748.134L849.564 754.079L846.235 759.905C841.835 767.633 837.079 775.243 832.204 782.614C829.825 786.3 827.209 789.986 824.712 793.553C822.215 797.239 819.48 800.687 816.864 804.254C814.248 807.82 811.632 811.387 808.897 814.835L804.735 820.067C803.308 821.85 801.881 823.515 800.455 825.179C797.601 828.627 794.628 831.956 791.774 835.286C788.801 838.615 785.829 841.825 782.737 845.035C758.36 870.717 731.606 893.664 703.186 914.471C689.036 924.815 674.41 934.683 659.427 943.719L648.131 950.497C644.326 952.637 640.52 954.896 636.715 956.917C632.791 958.938 628.986 961.078 625.062 963.1C621.138 965.121 617.214 967.142 613.29 969.044C597.475 976.654 581.422 983.669 564.894 989.495C548.365 995.439 531.599 1000.43 514.476 1004L514 1003.05Z" fill="#8340FF"/>
</g>
<path d="M1029.41 816V815.076H1026.08L1025.1 815.148L1025.96 814.416L1027.21 813.24C1027.94 812.544 1029.2 811.344 1029.2 810.024C1029.2 808.788 1028.5 807.84 1026.92 807.84C1025.08 807.84 1023.82 809.112 1023.98 810.696L1024.96 811.308C1024.75 809.712 1025.51 808.848 1026.85 808.848C1027.76 808.848 1028.12 809.448 1028.12 810.096C1028.12 810.984 1027.44 811.728 1026.56 812.592L1023.94 815.184V816H1029.41ZM1033.59 816.12C1035.35 816.12 1036.39 815.052 1036.39 813.42C1036.39 811.872 1035.56 810.756 1033.97 810.756C1032.91 810.756 1032.27 811.32 1032.02 812.028L1032.24 808.944H1035.78V807.96H1031.21L1030.95 812.568L1031.99 812.676L1032 812.544C1032.05 812.004 1032.65 811.62 1033.52 811.62C1034.4 811.62 1035.29 812.112 1035.29 813.42C1035.29 814.464 1034.73 815.124 1033.63 815.124C1032.5 815.124 1031.78 814.452 1031.49 813.408L1030.65 814.296C1031.06 815.316 1032.15 816.12 1033.59 816.12ZM1038.97 816V814.44H1037.71V816H1038.97ZM1043.61 816.12C1045.36 816.12 1046.41 815.052 1046.41 813.42C1046.41 811.872 1045.58 810.756 1043.98 810.756C1042.93 810.756 1042.29 811.32 1042.04 812.028L1042.26 808.944H1045.8V807.96H1041.22L1040.97 812.568L1042 812.676L1042.02 812.544C1042.06 812.004 1042.66 811.62 1043.54 811.62C1044.42 811.62 1045.3 812.112 1045.3 813.42C1045.3 814.464 1044.75 815.124 1043.65 815.124C1042.52 815.124 1041.8 814.452 1041.51 813.408L1040.67 814.296C1041.08 815.316 1042.17 816.12 1043.61 816.12ZM1051.77 811.476C1052.77 811.476 1053.51 810.768 1053.51 809.664C1053.51 808.56 1052.77 807.852 1051.77 807.852C1050.76 807.852 1050.02 808.56 1050.02 809.664C1050.02 810.768 1050.76 811.476 1051.77 811.476ZM1051.52 816L1057.18 807.96H1056.09L1050.43 816H1051.52ZM1051.77 810.708C1051.21 810.708 1050.87 810.3 1050.87 809.664C1050.87 809.016 1051.21 808.608 1051.77 808.608C1052.34 808.608 1052.68 809.016 1052.68 809.664C1052.68 810.3 1052.34 810.708 1051.77 810.708ZM1055.88 816C1056.87 816 1057.62 815.292 1057.62 814.188C1057.62 813.084 1056.87 812.376 1055.88 812.376C1054.87 812.376 1054.12 813.084 1054.12 814.188C1054.12 815.292 1054.87 816 1055.88 816ZM1055.88 815.232C1055.31 815.232 1054.98 814.824 1054.98 814.188C1054.98 813.54 1055.31 813.132 1055.88 813.132C1056.44 813.132 1056.79 813.54 1056.79 814.188C1056.79 814.824 1056.44 815.232 1055.88 815.232Z" fill="white"/>
<path d="M1070.2 810.113H1066.31H1062.8C1062.2 810.113 1061.9 810.838 1062.33 811.263L1065.56 814.5C1066.08 815.019 1066.93 815.019 1067.44 814.5L1068.68 813.269L1070.68 811.263C1071.1 810.838 1070.8 810.113 1070.2 810.113Z" fill="white"/>
<path d="M1518.41 966V965.076H1515.08L1514.1 965.148L1514.96 964.416L1516.21 963.24C1516.94 962.544 1518.2 961.344 1518.2 960.024C1518.2 958.788 1517.5 957.84 1515.92 957.84C1514.08 957.84 1512.82 959.112 1512.98 960.696L1513.96 961.308C1513.75 959.712 1514.51 958.848 1515.85 958.848C1516.76 958.848 1517.12 959.448 1517.12 960.096C1517.12 960.984 1516.44 961.728 1515.56 962.592L1512.94 965.184V966H1518.41ZM1522.59 966.12C1524.35 966.12 1525.39 965.052 1525.39 963.42C1525.39 961.872 1524.56 960.756 1522.97 960.756C1521.91 960.756 1521.27 961.32 1521.02 962.028L1521.24 958.944H1524.78V957.96H1520.21L1519.95 962.568L1520.99 962.676L1521 962.544C1521.05 962.004 1521.65 961.62 1522.52 961.62C1523.4 961.62 1524.29 962.112 1524.29 963.42C1524.29 964.464 1523.73 965.124 1522.63 965.124C1521.5 965.124 1520.78 964.452 1520.49 963.408L1519.65 964.296C1520.06 965.316 1521.15 966.12 1522.59 966.12ZM1527.97 966V964.44H1526.71V966H1527.97ZM1532.61 966.12C1534.36 966.12 1535.41 965.052 1535.41 963.42C1535.41 961.872 1534.58 960.756 1532.98 960.756C1531.93 960.756 1531.29 961.32 1531.04 962.028L1531.26 958.944H1534.8V957.96H1530.22L1529.97 962.568L1531 962.676L1531.02 962.544C1531.06 962.004 1531.66 961.62 1532.54 961.62C1533.42 961.62 1534.3 962.112 1534.3 963.42C1534.3 964.464 1533.75 965.124 1532.65 965.124C1531.52 965.124 1530.8 964.452 1530.51 963.408L1529.67 964.296C1530.08 965.316 1531.17 966.12 1532.61 966.12ZM1540.77 961.476C1541.77 961.476 1542.51 960.768 1542.51 959.664C1542.51 958.56 1541.77 957.852 1540.77 957.852C1539.76 957.852 1539.02 958.56 1539.02 959.664C1539.02 960.768 1539.76 961.476 1540.77 961.476ZM1540.52 966L1546.18 957.96H1545.09L1539.43 966H1540.52ZM1540.77 960.708C1540.21 960.708 1539.87 960.3 1539.87 959.664C1539.87 959.016 1540.21 958.608 1540.77 958.608C1541.34 958.608 1541.68 959.016 1541.68 959.664C1541.68 960.3 1541.34 960.708 1540.77 960.708ZM1544.88 966C1545.87 966 1546.62 965.292 1546.62 964.188C1546.62 963.084 1545.87 962.376 1544.88 962.376C1543.87 962.376 1543.12 963.084 1543.12 964.188C1543.12 965.292 1543.87 966 1544.88 966ZM1544.88 965.232C1544.31 965.232 1543.98 964.824 1543.98 964.188C1543.98 963.54 1544.31 963.132 1544.88 963.132C1545.44 963.132 1545.79 963.54 1545.79 964.188C1545.79 964.824 1545.44 965.232 1544.88 965.232Z" fill="white"/>
<path d="M1559.2 964.887H1555.31H1551.8C1551.2 964.887 1550.9 964.162 1551.32 963.737L1554.56 960.5C1555.08 959.981 1555.92 959.981 1556.44 960.5L1557.67 961.731L1559.68 963.737C1560.1 964.162 1559.8 964.887 1559.2 964.887Z" fill="white"/>
<path d="M1347.41 806V805.076H1344.08L1343.1 805.148L1343.96 804.416L1345.21 803.24C1345.94 802.544 1347.2 801.344 1347.2 800.024C1347.2 798.788 1346.5 797.84 1344.92 797.84C1343.08 797.84 1341.82 799.112 1341.98 800.696L1342.96 801.308C1342.75 799.712 1343.51 798.848 1344.85 798.848C1345.76 798.848 1346.12 799.448 1346.12 800.096C1346.12 800.984 1345.44 801.728 1344.56 802.592L1341.94 805.184V806H1347.41ZM1351.59 806.12C1353.35 806.12 1354.39 805.052 1354.39 803.42C1354.39 801.872 1353.56 800.756 1351.97 800.756C1350.91 800.756 1350.27 801.32 1350.02 802.028L1350.24 798.944H1353.78V797.96H1349.21L1348.95 802.568L1349.99 802.676L1350 802.544C1350.05 802.004 1350.65 801.62 1351.52 801.62C1352.4 801.62 1353.29 802.112 1353.29 803.42C1353.29 804.464 1352.73 805.124 1351.63 805.124C1350.5 805.124 1349.78 804.452 1349.49 803.408L1348.65 804.296C1349.06 805.316 1350.15 806.12 1351.59 806.12ZM1356.97 806V804.44H1355.71V806H1356.97ZM1361.61 806.12C1363.36 806.12 1364.41 805.052 1364.41 803.42C1364.41 801.872 1363.58 800.756 1361.98 800.756C1360.93 800.756 1360.29 801.32 1360.04 802.028L1360.26 798.944H1363.8V797.96H1359.22L1358.97 802.568L1360 802.676L1360.02 802.544C1360.06 802.004 1360.66 801.62 1361.54 801.62C1362.42 801.62 1363.3 802.112 1363.3 803.42C1363.3 804.464 1362.75 805.124 1361.65 805.124C1360.52 805.124 1359.8 804.452 1359.51 803.408L1358.67 804.296C1359.08 805.316 1360.17 806.12 1361.61 806.12ZM1369.77 801.476C1370.77 801.476 1371.51 800.768 1371.51 799.664C1371.51 798.56 1370.77 797.852 1369.77 797.852C1368.76 797.852 1368.02 798.56 1368.02 799.664C1368.02 800.768 1368.76 801.476 1369.77 801.476ZM1369.52 806L1375.18 797.96H1374.09L1368.43 806H1369.52ZM1369.77 800.708C1369.21 800.708 1368.87 800.3 1368.87 799.664C1368.87 799.016 1369.21 798.608 1369.77 798.608C1370.34 798.608 1370.68 799.016 1370.68 799.664C1370.68 800.3 1370.34 800.708 1369.77 800.708ZM1373.88 806C1374.87 806 1375.62 805.292 1375.62 804.188C1375.62 803.084 1374.87 802.376 1373.88 802.376C1372.87 802.376 1372.12 803.084 1372.12 804.188C1372.12 805.292 1372.87 806 1373.88 806ZM1373.88 805.232C1373.31 805.232 1372.98 804.824 1372.98 804.188C1372.98 803.54 1373.31 803.132 1373.88 803.132C1374.44 803.132 1374.79 803.54 1374.79 804.188C1374.79 804.824 1374.44 805.232 1373.88 805.232Z" fill="white"/>
<path d="M1388.2 804.887H1384.31H1380.8C1380.2 804.887 1379.9 804.162 1380.32 803.737L1383.56 800.5C1384.08 799.981 1384.92 799.981 1385.44 800.5L1386.67 801.731L1388.68 803.737C1389.1 804.162 1388.8 804.887 1388.2 804.887Z" fill="white"/>
<path d="M1518.41 663V662.076H1515.08L1514.1 662.148L1514.96 661.416L1516.21 660.24C1516.94 659.544 1518.2 658.344 1518.2 657.024C1518.2 655.788 1517.5 654.84 1515.92 654.84C1514.08 654.84 1512.82 656.112 1512.98 657.696L1513.96 658.308C1513.75 656.712 1514.51 655.848 1515.85 655.848C1516.76 655.848 1517.12 656.448 1517.12 657.096C1517.12 657.984 1516.44 658.728 1515.56 659.592L1512.94 662.184V663H1518.41ZM1522.59 663.12C1524.35 663.12 1525.39 662.052 1525.39 660.42C1525.39 658.872 1524.56 657.756 1522.97 657.756C1521.91 657.756 1521.27 658.32 1521.02 659.028L1521.24 655.944H1524.78V654.96H1520.21L1519.95 659.568L1520.99 659.676L1521 659.544C1521.05 659.004 1521.65 658.62 1522.52 658.62C1523.4 658.62 1524.29 659.112 1524.29 660.42C1524.29 661.464 1523.73 662.124 1522.63 662.124C1521.5 662.124 1520.78 661.452 1520.49 660.408L1519.65 661.296C1520.06 662.316 1521.15 663.12 1522.59 663.12ZM1527.97 663V661.44H1526.71V663H1527.97ZM1532.61 663.12C1534.36 663.12 1535.41 662.052 1535.41 660.42C1535.41 658.872 1534.58 657.756 1532.98 657.756C1531.93 657.756 1531.29 658.32 1531.04 659.028L1531.26 655.944H1534.8V654.96H1530.22L1529.97 659.568L1531 659.676L1531.02 659.544C1531.06 659.004 1531.66 658.62 1532.54 658.62C1533.42 658.62 1534.3 659.112 1534.3 660.42C1534.3 661.464 1533.75 662.124 1532.65 662.124C1531.52 662.124 1530.8 661.452 1530.51 660.408L1529.67 661.296C1530.08 662.316 1531.17 663.12 1532.61 663.12ZM1540.77 658.476C1541.77 658.476 1542.51 657.768 1542.51 656.664C1542.51 655.56 1541.77 654.852 1540.77 654.852C1539.76 654.852 1539.02 655.56 1539.02 656.664C1539.02 657.768 1539.76 658.476 1540.77 658.476ZM1540.52 663L1546.18 654.96H1545.09L1539.43 663H1540.52ZM1540.77 657.708C1540.21 657.708 1539.87 657.3 1539.87 656.664C1539.87 656.016 1540.21 655.608 1540.77 655.608C1541.34 655.608 1541.68 656.016 1541.68 656.664C1541.68 657.3 1541.34 657.708 1540.77 657.708ZM1544.88 663C1545.87 663 1546.62 662.292 1546.62 661.188C1546.62 660.084 1545.87 659.376 1544.88 659.376C1543.87 659.376 1543.12 660.084 1543.12 661.188C1543.12 662.292 1543.87 663 1544.88 663ZM1544.88 662.232C1544.31 662.232 1543.98 661.824 1543.98 661.188C1543.98 660.54 1544.31 660.132 1544.88 660.132C1545.44 660.132 1545.79 660.54 1545.79 661.188C1545.79 661.824 1545.44 662.232 1544.88 662.232Z" fill="white"/>
<path d="M1559.2 661.887H1555.31H1551.8C1551.2 661.887 1550.9 661.162 1551.32 660.737L1554.56 657.5C1555.08 656.981 1555.92 656.981 1556.44 657.5L1557.67 658.731L1559.68 660.737C1560.1 661.162 1559.8 661.887 1559.2 661.887Z" fill="white"/>
<path d="M1194.41 966V965.076H1191.08L1190.1 965.148L1190.96 964.416L1192.21 963.24C1192.94 962.544 1194.2 961.344 1194.2 960.024C1194.2 958.788 1193.5 957.84 1191.92 957.84C1190.08 957.84 1188.82 959.112 1188.98 960.696L1189.96 961.308C1189.75 959.712 1190.51 958.848 1191.85 958.848C1192.76 958.848 1193.12 959.448 1193.12 960.096C1193.12 960.984 1192.44 961.728 1191.56 962.592L1188.94 965.184V966H1194.41ZM1198.59 966.12C1200.35 966.12 1201.39 965.052 1201.39 963.42C1201.39 961.872 1200.56 960.756 1198.97 960.756C1197.91 960.756 1197.27 961.32 1197.02 962.028L1197.24 958.944H1200.78V957.96H1196.21L1195.95 962.568L1196.99 962.676L1197 962.544C1197.05 962.004 1197.65 961.62 1198.52 961.62C1199.4 961.62 1200.29 962.112 1200.29 963.42C1200.29 964.464 1199.73 965.124 1198.63 965.124C1197.5 965.124 1196.78 964.452 1196.49 963.408L1195.65 964.296C1196.06 965.316 1197.15 966.12 1198.59 966.12ZM1203.97 966V964.44H1202.71V966H1203.97ZM1208.61 966.12C1210.36 966.12 1211.41 965.052 1211.41 963.42C1211.41 961.872 1210.58 960.756 1208.98 960.756C1207.93 960.756 1207.29 961.32 1207.04 962.028L1207.26 958.944H1210.8V957.96H1206.22L1205.97 962.568L1207 962.676L1207.02 962.544C1207.06 962.004 1207.66 961.62 1208.54 961.62C1209.42 961.62 1210.3 962.112 1210.3 963.42C1210.3 964.464 1209.75 965.124 1208.65 965.124C1207.52 965.124 1206.8 964.452 1206.51 963.408L1205.67 964.296C1206.08 965.316 1207.17 966.12 1208.61 966.12ZM1216.77 961.476C1217.77 961.476 1218.51 960.768 1218.51 959.664C1218.51 958.56 1217.77 957.852 1216.77 957.852C1215.76 957.852 1215.02 958.56 1215.02 959.664C1215.02 960.768 1215.76 961.476 1216.77 961.476ZM1216.52 966L1222.18 957.96H1221.09L1215.43 966H1216.52ZM1216.77 960.708C1216.21 960.708 1215.87 960.3 1215.87 959.664C1215.87 959.016 1216.21 958.608 1216.77 958.608C1217.34 958.608 1217.68 959.016 1217.68 959.664C1217.68 960.3 1217.34 960.708 1216.77 960.708ZM1220.88 966C1221.87 966 1222.62 965.292 1222.62 964.188C1222.62 963.084 1221.87 962.376 1220.88 962.376C1219.87 962.376 1219.12 963.084 1219.12 964.188C1219.12 965.292 1219.87 966 1220.88 966ZM1220.88 965.232C1220.31 965.232 1219.98 964.824 1219.98 964.188C1219.98 963.54 1220.31 963.132 1220.88 963.132C1221.44 963.132 1221.79 963.54 1221.79 964.188C1221.79 964.824 1221.44 965.232 1220.88 965.232Z" fill="white"/>
<path d="M1235.2 964.887H1231.31H1227.8C1227.2 964.887 1226.9 964.162 1227.33 963.737L1230.56 960.5C1231.08 959.981 1231.93 959.981 1232.44 960.5L1233.68 961.731L1235.68 963.737C1236.1 964.162 1235.8 964.887 1235.2 964.887Z" fill="white"/>
<g opacity="0.6" filter="url(#filter4_f_48_179)">
<path d="M675 923.524C680.946 920.077 687.012 916.748 692.958 913.182L697.358 910.566C698.786 909.615 700.213 908.783 701.759 907.832L706.159 905.097C707.586 904.146 709.013 903.314 710.441 902.244C721.977 894.754 733.037 886.67 743.74 878.111C754.444 869.67 764.791 860.635 774.543 851.124C779.419 846.368 784.176 841.494 788.814 836.501C793.452 831.508 797.972 826.396 802.253 821.165C806.534 815.934 810.816 810.703 814.74 805.235C818.903 799.885 822.471 794.178 826.157 788.71C833.293 777.297 839.715 765.527 845.662 753.282L850.062 744.128L854.343 734.855L863.025 716.071C868.853 703.47 874.68 690.868 880.864 678.385C883.956 672.084 887.049 665.902 890.26 659.72C893.471 653.538 896.563 647.356 899.893 641.174L904.888 632.02C906.553 628.929 908.218 625.838 909.883 622.866L920.111 604.677C934.025 580.543 948.178 556.766 963.876 533.346C971.844 521.695 980.169 510.164 989.446 498.988C994.084 493.401 999.079 488.051 1004.31 482.82C1009.66 477.708 1015.25 472.596 1021.2 468.078L1023.46 466.414C1024.17 465.82 1025.01 465.344 1025.72 464.75L1030.36 461.54L1035.11 458.568L1037.49 457.022L1039.87 455.596L1044.63 452.861L1049.27 450.365C1052.48 448.7 1055.69 447.036 1058.9 445.372C1071.98 438.952 1085.9 433.602 1100.17 429.679C1114.56 425.756 1129.54 423.616 1144.65 423.378C1152.26 423.259 1159.75 423.616 1167.36 424.567C1174.85 425.518 1182.47 426.826 1189.84 428.965C1197.21 431.105 1204.59 433.721 1211.6 437.05C1218.62 440.378 1225.28 444.302 1231.58 448.581C1244.19 457.26 1254.89 467.365 1264.88 476.638C1274.87 485.911 1284.39 494.352 1294.73 500.653C1304.96 506.954 1316.14 510.996 1328.15 513.255L1332.67 513.968C1333.5 514.087 1333.98 514.206 1334.81 514.206L1337.07 514.443C1338.62 514.562 1340.16 514.681 1341.71 514.681C1343.26 514.8 1344.8 514.8 1346.47 514.8H1348.85H1351.22C1352.77 514.8 1354.44 514.8 1355.98 514.681L1360.74 514.443L1365.5 513.968C1367.04 513.849 1368.59 513.611 1370.25 513.373C1371.8 513.136 1373.35 513.017 1374.89 512.66L1379.53 511.828L1381.91 511.352L1384.17 510.758L1388.81 509.688C1390.35 509.331 1391.78 508.856 1393.33 508.38C1394.87 507.905 1396.3 507.548 1397.84 506.954L1402.24 505.289C1405.22 504.338 1407.95 502.912 1410.81 501.723L1412.95 500.772C1413.66 500.415 1414.26 500.058 1414.97 499.702L1419.01 497.562C1424.37 494.471 1429.48 491.142 1434.12 487.457C1438.76 483.771 1442.68 479.729 1446.37 474.974C1450.05 470.337 1453.5 464.75 1457.19 458.924C1460.88 453.099 1464.8 447.036 1468.84 441.092C1470.98 438.12 1473.01 435.147 1475.27 432.294C1477.41 429.441 1479.67 426.588 1481.93 423.735C1484.19 421 1486.45 418.147 1488.82 415.532C1491.2 412.916 1493.58 410.063 1495.96 407.566L1503.1 399.958L1510.23 392.23C1520.1 381.887 1530.92 372.02 1542.82 363.341C1554.71 354.663 1567.79 347.292 1581.83 342.18C1595.86 336.949 1610.73 333.977 1625.47 333.264C1640.22 332.431 1654.85 333.62 1669 336.117L1666.26 354.901C1653.06 353.355 1639.98 352.88 1627.14 354.306C1614.29 355.614 1601.92 358.586 1590.27 363.46C1578.61 368.334 1567.67 374.992 1557.45 382.838C1547.22 390.804 1537.82 399.839 1528.9 409.706L1522.24 417.315L1515.46 425.042C1513.09 427.539 1511.18 430.154 1508.92 432.651C1506.78 435.147 1504.76 437.763 1502.74 440.378C1500.72 442.994 1498.7 445.609 1496.79 448.225C1494.77 450.84 1492.99 453.575 1491.08 456.309C1487.4 461.778 1483.95 467.365 1480.38 473.309C1476.81 479.254 1473.01 485.436 1468.37 491.736C1463.73 498.037 1458.02 504.1 1451.96 509.094C1445.89 514.087 1439.59 518.367 1432.93 522.29L1427.93 525.024C1427.1 525.5 1426.27 525.975 1425.44 526.332L1422.82 527.521C1419.37 529.066 1415.92 530.73 1412.35 532.038L1407 534.059C1405.22 534.654 1403.43 535.248 1401.65 535.724C1399.87 536.318 1398.08 536.912 1396.18 537.388L1390.71 538.696L1387.97 539.409L1385.24 540.003L1379.77 541.073C1377.86 541.43 1376.08 541.668 1374.18 541.906C1372.27 542.143 1370.49 542.5 1368.59 542.619L1363 543.213L1357.41 543.57C1355.51 543.689 1353.72 543.689 1351.82 543.808L1348.96 543.927H1346.11C1344.21 543.927 1342.3 543.927 1340.52 543.808C1338.62 543.808 1336.72 543.689 1334.81 543.451C1333.86 543.332 1332.91 543.332 1331.84 543.213C1330.89 543.094 1329.7 542.976 1328.75 542.857L1323.04 542.025C1315.43 540.717 1307.82 538.696 1300.44 536.08C1293.07 533.346 1285.93 529.898 1279.27 525.856C1265.95 517.772 1254.65 507.786 1244.43 498.394C1234.2 488.883 1224.69 479.967 1214.46 472.953C1209.34 469.386 1204.11 466.295 1198.64 463.799C1193.17 461.183 1187.46 459.162 1181.63 457.498C1175.81 455.714 1169.62 454.763 1163.56 453.931C1157.37 453.099 1151.19 452.742 1145 452.861C1132.52 452.98 1119.91 454.645 1107.66 457.973C1095.29 461.183 1083.16 465.701 1071.51 471.288C1068.53 472.715 1065.68 474.142 1062.71 475.687L1058.3 478.065L1054.14 480.442L1052 481.631L1049.98 482.82L1046.06 485.198L1042.13 487.813C1041.54 488.289 1040.82 488.645 1040.23 489.121L1038.32 490.548C1033.21 494.233 1028.57 498.513 1023.82 502.793C1019.18 507.31 1014.78 511.828 1010.5 516.821C1001.93 526.688 993.846 537.388 986.116 548.444C978.266 559.501 970.774 570.795 963.4 582.326L957.811 591.005L952.34 599.683C948.772 605.509 944.967 611.215 941.399 617.159L930.814 634.754C927.246 640.58 923.916 646.643 920.467 652.468C917.018 658.412 913.688 664.357 910.358 670.301C907.028 676.245 903.699 682.308 900.487 688.252C893.946 700.26 887.643 712.505 881.34 724.75C875.037 736.995 868.734 749.359 861.955 761.604C855.176 773.849 847.802 785.975 839.596 797.507C831.271 809.039 822.233 819.857 812.481 830.081C793.214 850.648 771.57 868.6 748.497 884.293C736.843 892.258 724.95 899.51 712.7 906.048C709.727 907.713 706.516 909.258 703.424 910.804C701.878 911.636 700.332 912.349 698.786 913.182L694.147 915.44C687.963 918.531 681.541 921.147 675.238 924L675 923.524Z" fill="#5322D5"/>
</g>
<path d="M869.408 966V965.076H866.084L865.1 965.148L865.964 964.416L867.212 963.24C867.944 962.544 869.204 961.344 869.204 960.024C869.204 958.788 868.496 957.84 866.924 957.84C865.076 957.84 863.816 959.112 863.984 960.696L864.956 961.308C864.752 959.712 865.508 958.848 866.852 958.848C867.764 958.848 868.124 959.448 868.124 960.096C868.124 960.984 867.44 961.728 866.564 962.592L863.936 965.184V966H869.408ZM873.593 966.12C875.345 966.12 876.389 965.052 876.389 963.42C876.389 961.872 875.561 960.756 873.965 960.756C872.909 960.756 872.273 961.32 872.021 962.028L872.237 958.944H875.777V957.96H871.205L870.953 962.568L871.985 962.676L871.997 962.544C872.045 962.004 872.645 961.62 873.521 961.62C874.397 961.62 875.285 962.112 875.285 963.42C875.285 964.464 874.733 965.124 873.629 965.124C872.501 965.124 871.781 964.452 871.493 963.408L870.653 964.296C871.061 965.316 872.153 966.12 873.593 966.12ZM878.971 966V964.44H877.711V966H878.971ZM883.613 966.12C885.365 966.12 886.409 965.052 886.409 963.42C886.409 961.872 885.581 960.756 883.985 960.756C882.929 960.756 882.293 961.32 882.041 962.028L882.257 958.944H885.797V957.96H881.225L880.973 962.568L882.005 962.676L882.017 962.544C882.065 962.004 882.665 961.62 883.541 961.62C884.417 961.62 885.305 962.112 885.305 963.42C885.305 964.464 884.753 965.124 883.649 965.124C882.521 965.124 881.801 964.452 881.513 963.408L880.673 964.296C881.081 965.316 882.173 966.12 883.613 966.12ZM891.771 961.476C892.767 961.476 893.511 960.768 893.511 959.664C893.511 958.56 892.767 957.852 891.771 957.852C890.763 957.852 890.019 958.56 890.019 959.664C890.019 960.768 890.763 961.476 891.771 961.476ZM891.519 966L897.183 957.96H896.091L890.427 966H891.519ZM891.771 960.708C891.207 960.708 890.871 960.3 890.871 959.664C890.871 959.016 891.207 958.608 891.771 958.608C892.335 958.608 892.683 959.016 892.683 959.664C892.683 960.3 892.335 960.708 891.771 960.708ZM895.875 966C896.871 966 897.615 965.292 897.615 964.188C897.615 963.084 896.871 962.376 895.875 962.376C894.867 962.376 894.123 963.084 894.123 964.188C894.123 965.292 894.867 966 895.875 966ZM895.875 965.232C895.311 965.232 894.975 964.824 894.975 964.188C894.975 963.54 895.311 963.132 895.875 963.132C896.439 963.132 896.787 963.54 896.787 964.188C896.787 964.824 896.439 965.232 895.875 965.232Z" fill="white"/>
<path d="M910.2 964.887H906.306H902.8C902.2 964.887 901.9 964.162 902.325 963.737L905.563 960.5C906.081 959.981 906.925 959.981 907.444 960.5L908.675 961.731L910.681 963.737C911.1 964.162 910.8 964.887 910.2 964.887Z" fill="white"/>
<g filter="url(#filter5_b_48_179)">
<mask id="path-223-inside-1_48_179" fill="white">
<path fill-rule="evenodd" clip-rule="evenodd" d="M1169 285H1029V329H1084.87L1096 338L1107.13 329H1169V285Z"/>
</mask>
<path fill-rule="evenodd" clip-rule="evenodd" d="M1169 285H1029V329H1084.87L1096 338L1107.13 329H1169V285Z" fill="white" fill-opacity="0.25"/>
<path d="M1029 285V284H1028V285H1029ZM1169 285H1170V284H1169V285ZM1029 329H1028V330H1029V329ZM1084.87 329L1085.49 328.222L1085.22 328H1084.87V329ZM1096 338L1095.37 338.778L1096 339.286L1096.63 338.778L1096 338ZM1107.13 329V328H1106.78L1106.51 328.222L1107.13 329ZM1169 329V330H1170V329H1169ZM1029 286H1169V284H1029V286ZM1030 329V285H1028V329H1030ZM1084.87 328H1029V330H1084.87V328ZM1084.24 329.778L1095.37 338.778L1096.63 337.222L1085.49 328.222L1084.24 329.778ZM1096.63 338.778L1107.76 329.778L1106.51 328.222L1095.37 337.222L1096.63 338.778ZM1169 328H1107.13V330H1169V328ZM1168 285V329H1170V285H1168Z" fill="url(#paint1_linear_48_179)" mask="url(#path-223-inside-1_48_179)"/>
</g>
<path d="M1056.02 308.58V306.12H1058.46V304.46H1056.02V302.02H1054.36V304.46H1051.9V306.12H1054.36V308.58H1056.02ZM1070.44 312V310H1065.3L1063.3 310.2L1064.86 309.04L1066.72 307.4C1068.14 306.22 1070.06 304.36 1070.06 302.2C1070.06 300 1068.74 298.4 1066.04 298.4C1062.96 298.4 1060.78 300.36 1060.84 303.04L1062.74 304.4C1062.62 301.82 1063.86 300.56 1065.84 300.56C1067.14 300.56 1067.7 301.38 1067.7 302.34C1067.7 303.6 1066.78 304.62 1065.48 305.88L1060.86 310.28V312H1070.44ZM1077.31 312.2C1080.35 312.2 1082.25 310.36 1082.25 307.6C1082.25 304.94 1080.77 303.22 1078.23 303.22C1076.45 303.22 1075.37 304.18 1074.95 305.38L1075.27 300.68H1081.25V298.6H1073.11L1072.67 306.22L1074.87 306.44L1074.89 306.26C1075.01 305.4 1075.91 304.86 1077.19 304.86C1078.57 304.86 1079.83 305.62 1079.83 307.5C1079.83 309.06 1078.95 310.02 1077.33 310.02C1075.61 310.02 1074.43 309.02 1073.97 307.36L1072.17 309.1C1072.85 310.84 1074.75 312.2 1077.31 312.2ZM1086.69 312V309.16H1084.13V312H1086.69ZM1094.16 312.2C1097.2 312.2 1099.1 310.36 1099.1 307.6C1099.1 304.94 1097.62 303.22 1095.08 303.22C1093.3 303.22 1092.22 304.18 1091.8 305.38L1092.12 300.68H1098.1V298.6H1089.96L1089.52 306.22L1091.72 306.44L1091.74 306.26C1091.86 305.4 1092.76 304.86 1094.04 304.86C1095.42 304.86 1096.68 305.62 1096.68 307.5C1096.68 309.06 1095.8 310.02 1094.18 310.02C1092.46 310.02 1091.28 309.02 1090.82 307.36L1089.02 309.1C1089.7 310.84 1091.6 312.2 1094.16 312.2ZM1107.94 312.26L1117.68 298.34H1115.56L1105.8 312.26H1107.94ZM1107.84 305C1109.68 305 1111.04 303.72 1111.04 301.7C1111.04 299.7 1109.68 298.42 1107.84 298.42C1106 298.42 1104.64 299.7 1104.64 301.7C1104.64 303.72 1106 305 1107.84 305ZM1107.84 303.34C1107 303.34 1106.52 302.76 1106.52 301.7C1106.52 300.64 1107 300.06 1107.84 300.06C1108.7 300.06 1109.2 300.64 1109.2 301.7C1109.2 302.76 1108.7 303.34 1107.84 303.34ZM1115.72 312C1117.56 312 1118.92 310.72 1118.92 308.7C1118.92 306.7 1117.56 305.42 1115.72 305.42C1113.88 305.42 1112.52 306.7 1112.52 308.7C1112.52 310.72 1113.88 312 1115.72 312ZM1115.72 310.34C1114.88 310.34 1114.38 309.76 1114.38 308.7C1114.38 307.62 1114.88 307.06 1115.72 307.06C1116.56 307.06 1117.08 307.62 1117.08 308.7C1117.08 309.76 1116.56 310.34 1115.72 310.34Z" fill="white"/>
<path d="M1141.67 310.479H1135.18H1129.33C1128.33 310.479 1127.83 309.271 1128.54 308.563L1133.94 303.167C1134.8 302.302 1136.21 302.302 1137.07 303.167L1139.13 305.219L1142.47 308.563C1143.17 309.271 1142.67 310.479 1141.67 310.479Z" fill="white"/>
<g filter="url(#filter6_b_48_179)">
<mask id="path-227-inside-2_48_179" fill="white">
<path fill-rule="evenodd" clip-rule="evenodd" d="M1296 636H1156V680H1211.87L1223 689L1234.13 680H1296V636Z"/>
</mask>
<path fill-rule="evenodd" clip-rule="evenodd" d="M1296 636H1156V680H1211.87L1223 689L1234.13 680H1296V636Z" fill="white" fill-opacity="0.25"/>
<path d="M1156 636V635H1155V636H1156ZM1296 636H1297V635H1296V636ZM1156 680H1155V681H1156V680ZM1211.87 680L1212.49 679.222L1212.22 679H1211.87V680ZM1223 689L1222.37 689.778L1223 690.286L1223.63 689.778L1223 689ZM1234.13 680V679H1233.78L1233.51 679.222L1234.13 680ZM1296 680V681H1297V680H1296ZM1156 637H1296V635H1156V637ZM1157 680V636H1155V680H1157ZM1211.87 679H1156V681H1211.87V679ZM1211.24 680.778L1222.37 689.778L1223.63 688.222L1212.49 679.222L1211.24 680.778ZM1223.63 689.778L1234.76 680.778L1233.51 679.222L1222.37 688.222L1223.63 689.778ZM1296 679H1234.13V681H1296V679ZM1295 636V680H1297V636H1295Z" fill="url(#paint2_linear_48_179)" mask="url(#path-227-inside-2_48_179)"/>
</g>
<path d="M1183.8 658.36V656.64H1178.78V658.36H1183.8ZM1189.86 663V649.6H1187.88C1187.2 650.46 1186.26 650.8 1185.16 650.8V652.44H1187.6V663H1189.86ZM1197.61 663.2C1200.65 663.2 1202.55 661.36 1202.55 658.6C1202.55 655.94 1201.07 654.22 1198.53 654.22C1196.75 654.22 1195.67 655.18 1195.25 656.38L1195.57 651.68H1201.55V649.6H1193.41L1192.97 657.22L1195.17 657.44L1195.19 657.26C1195.31 656.4 1196.21 655.86 1197.49 655.86C1198.87 655.86 1200.13 656.62 1200.13 658.5C1200.13 660.06 1199.25 661.02 1197.63 661.02C1195.91 661.02 1194.73 660.02 1194.27 658.36L1192.47 660.1C1193.15 661.84 1195.05 663.2 1197.61 663.2ZM1206.99 663V660.16H1204.43V663H1206.99ZM1214.46 663.2C1217.5 663.2 1219.4 661.36 1219.4 658.6C1219.4 655.94 1217.92 654.22 1215.38 654.22C1213.6 654.22 1212.52 655.18 1212.1 656.38L1212.42 651.68H1218.4V649.6H1210.26L1209.82 657.22L1212.02 657.44L1212.04 657.26C1212.16 656.4 1213.06 655.86 1214.34 655.86C1215.72 655.86 1216.98 656.62 1216.98 658.5C1216.98 660.06 1216.1 661.02 1214.48 661.02C1212.76 661.02 1211.58 660.02 1211.12 658.36L1209.32 660.1C1210 661.84 1211.9 663.2 1214.46 663.2ZM1228.24 663.26L1237.98 649.34H1235.86L1226.1 663.26H1228.24ZM1228.14 656C1229.98 656 1231.34 654.72 1231.34 652.7C1231.34 650.7 1229.98 649.42 1228.14 649.42C1226.3 649.42 1224.94 650.7 1224.94 652.7C1224.94 654.72 1226.3 656 1228.14 656ZM1228.14 654.34C1227.3 654.34 1226.82 653.76 1226.82 652.7C1226.82 651.64 1227.3 651.06 1228.14 651.06C1229 651.06 1229.5 651.64 1229.5 652.7C1229.5 653.76 1229 654.34 1228.14 654.34ZM1236.02 663C1237.86 663 1239.22 661.72 1239.22 659.7C1239.22 657.7 1237.86 656.42 1236.02 656.42C1234.18 656.42 1232.82 657.7 1232.82 659.7C1232.82 661.72 1234.18 663 1236.02 663ZM1236.02 661.34C1235.18 661.34 1234.68 660.76 1234.68 659.7C1234.68 658.62 1235.18 658.06 1236.02 658.06C1236.86 658.06 1237.38 658.62 1237.38 659.7C1237.38 660.76 1236.86 661.34 1236.02 661.34Z" fill="white"/>
<path d="M1268.67 661.479H1262.18H1256.33C1255.33 661.479 1254.83 660.271 1255.54 659.563L1260.94 654.167C1261.8 653.302 1263.21 653.302 1264.07 654.167L1266.13 656.219L1269.47 659.563C1270.17 660.271 1269.67 661.479 1268.67 661.479Z" fill="white"/>
<g filter="url(#filter7_b_48_179)">
<mask id="path-231-inside-3_48_179" fill="white">
<path fill-rule="evenodd" clip-rule="evenodd" d="M1638 224H1498V268H1553.87L1565 277L1576.13 268H1638V224Z"/>
</mask>
<path fill-rule="evenodd" clip-rule="evenodd" d="M1638 224H1498V268H1553.87L1565 277L1576.13 268H1638V224Z" fill="white" fill-opacity="0.25"/>
<path d="M1498 224V223H1497V224H1498ZM1638 224H1639V223H1638V224ZM1498 268H1497V269H1498V268ZM1553.87 268L1554.49 267.222L1554.22 267H1553.87V268ZM1565 277L1564.37 277.778L1565 278.286L1565.63 277.778L1565 277ZM1576.13 268V267H1575.78L1575.51 267.222L1576.13 268ZM1638 268V269H1639V268H1638ZM1498 225H1638V223H1498V225ZM1499 268V224H1497V268H1499ZM1553.87 267H1498V269H1553.87V267ZM1553.24 268.778L1564.37 277.778L1565.63 276.222L1554.49 267.222L1553.24 268.778ZM1565.63 277.778L1576.76 268.778L1575.51 267.222L1564.37 276.222L1565.63 277.778ZM1638 267H1576.13V269H1638V267ZM1637 224V268H1639V224H1637Z" fill="url(#paint3_linear_48_179)" mask="url(#path-231-inside-3_48_179)"/>
</g>
<path d="M1525.02 247.58V245.12H1527.46V243.46H1525.02V241.02H1523.36V243.46H1520.9V245.12H1523.36V247.58H1525.02ZM1534.92 251.2C1537.96 251.2 1539.86 249.36 1539.86 246.6C1539.86 243.94 1538.38 242.22 1535.84 242.22C1534.06 242.22 1532.98 243.18 1532.56 244.38L1532.88 239.68H1538.86V237.6H1530.72L1530.28 245.22L1532.48 245.44L1532.5 245.26C1532.62 244.4 1533.52 243.86 1534.8 243.86C1536.18 243.86 1537.44 244.62 1537.44 246.5C1537.44 248.06 1536.56 249.02 1534.94 249.02C1533.22 249.02 1532.04 248.02 1531.58 246.36L1529.78 248.1C1530.46 249.84 1532.36 251.2 1534.92 251.2ZM1547.17 251.2C1550.21 251.2 1552.11 249.36 1552.11 246.6C1552.11 243.94 1550.63 242.22 1548.09 242.22C1546.31 242.22 1545.23 243.18 1544.81 244.38L1545.13 239.68H1551.11V237.6H1542.97L1542.53 245.22L1544.73 245.44L1544.75 245.26C1544.87 244.4 1545.77 243.86 1547.05 243.86C1548.43 243.86 1549.69 244.62 1549.69 246.5C1549.69 248.06 1548.81 249.02 1547.19 249.02C1545.47 249.02 1544.29 248.02 1543.83 246.36L1542.03 248.1C1542.71 249.84 1544.61 251.2 1547.17 251.2ZM1556.55 251V248.16H1553.99V251H1556.55ZM1564.02 251.2C1567.06 251.2 1568.96 249.36 1568.96 246.6C1568.96 243.94 1567.48 242.22 1564.94 242.22C1563.16 242.22 1562.08 243.18 1561.66 244.38L1561.98 239.68H1567.96V237.6H1559.82L1559.38 245.22L1561.58 245.44L1561.6 245.26C1561.72 244.4 1562.62 243.86 1563.9 243.86C1565.28 243.86 1566.54 244.62 1566.54 246.5C1566.54 248.06 1565.66 249.02 1564.04 249.02C1562.32 249.02 1561.14 248.02 1560.68 246.36L1558.88 248.1C1559.56 249.84 1561.46 251.2 1564.02 251.2ZM1577.8 251.26L1587.54 237.34H1585.42L1575.66 251.26H1577.8ZM1577.7 244C1579.54 244 1580.9 242.72 1580.9 240.7C1580.9 238.7 1579.54 237.42 1577.7 237.42C1575.86 237.42 1574.5 238.7 1574.5 240.7C1574.5 242.72 1575.86 244 1577.7 244ZM1577.7 242.34C1576.86 242.34 1576.38 241.76 1576.38 240.7C1576.38 239.64 1576.86 239.06 1577.7 239.06C1578.56 239.06 1579.06 239.64 1579.06 240.7C1579.06 241.76 1578.56 242.34 1577.7 242.34ZM1585.58 251C1587.42 251 1588.78 249.72 1588.78 247.7C1588.78 245.7 1587.42 244.42 1585.58 244.42C1583.74 244.42 1582.38 245.7 1582.38 247.7C1582.38 249.72 1583.74 251 1585.58 251ZM1585.58 249.34C1584.74 249.34 1584.24 248.76 1584.24 247.7C1584.24 246.62 1584.74 246.06 1585.58 246.06C1586.42 246.06 1586.94 246.62 1586.94 247.7C1586.94 248.76 1586.42 249.34 1585.58 249.34Z" fill="white"/>
<path d="M1610.67 249.479H1604.18H1598.33C1597.33 249.479 1596.83 248.271 1597.54 247.563L1602.94 242.167C1603.8 241.302 1605.21 241.302 1606.07 242.167L1608.13 244.219L1611.47 247.563C1612.17 248.271 1611.67 249.479 1610.67 249.479Z" fill="white"/>
<defs>
<filter id="filter0_f_48_179" x="193" y="-337" width="2237" height="2051" filterUnits="userSpaceOnUse" color-interpolation-filters="sRGB">
<feFlood flood-opacity="0" result="BackgroundImageFix"/>
<feBlend mode="normal" in="SourceGraphic" in2="BackgroundImageFix" result="shape"/>
<feGaussianBlur stdDeviation="205" result="effect1_foregroundBlur_48_179"/>
</filter>
<filter id="filter1_ii_48_179" x="509" y="292" width="1180" height="719" filterUnits="userSpaceOnUse" color-interpolation-filters="sRGB">
<feFlood flood-opacity="0" result="BackgroundImageFix"/>
<feBlend mode="normal" in="SourceGraphic" in2="BackgroundImageFix" result="shape"/>
<feColorMatrix in="SourceAlpha" type="matrix" values="0 0 0 0 0 0 0 0 0 0 0 0 0 0 0 0 0 0 127 0" result="hardAlpha"/>
<feOffset dy="7"/>
<feGaussianBlur stdDeviation="4"/>
<feComposite in2="hardAlpha" operator="arithmetic" k2="-1" k3="1"/>
<feColorMatrix type="matrix" values="0 0 0 0 1 0 0 0 0 1 0 0 0 0 1 0 0 0 1 0"/>
<feBlend mode="normal" in2="shape" result="effect1_innerShadow_48_179"/>
<feColorMatrix in="SourceAlpha" type="matrix" values="0 0 0 0 0 0 0 0 0 0 0 0 0 0 0 0 0 0 127 0" result="hardAlpha"/>
<feOffset dy="-9"/>
<feGaussianBlur stdDeviation="3.5"/>
<feComposite in2="hardAlpha" operator="arithmetic" k2="-1" k3="1"/>
<feColorMatrix type="matrix" values="0 0 0 0 0.588235 0 0 0 0 0.737255 0 0 0 0 1 0 0 0 1 0"/>
<feBlend mode="normal" in2="effect1_innerShadow_48_179" result="effect2_innerShadow_48_179"/>
</filter>
<filter id="filter2_f_48_179" x="631" y="404" width="1088" height="549" filterUnits="userSpaceOnUse" color-interpolation-filters="sRGB">
<feFlood flood-opacity="0" result="BackgroundImageFix"/>
<feBlend mode="normal" in="SourceGraphic" in2="BackgroundImageFix" result="shape"/>
<feGaussianBlur stdDeviation="4.5" result="effect1_foregroundBlur_48_179"/>
</filter>
<filter id="filter3_ii_48_179" x="514" y="222" width="1174" height="787" filterUnits="userSpaceOnUse" color-interpolation-filters="sRGB">
<feFlood flood-opacity="0" result="BackgroundImageFix"/>
<feBlend mode="normal" in="SourceGraphic" in2="BackgroundImageFix" result="shape"/>
<feColorMatrix in="SourceAlpha" type="matrix" values="0 0 0 0 0 0 0 0 0 0 0 0 0 0 0 0 0 0 127 0" result="hardAlpha"/>
<feOffset dy="-9"/>
<feGaussianBlur stdDeviation="4.5"/>
<feComposite in2="hardAlpha" operator="arithmetic" k2="-1" k3="1"/>
<feColorMatrix type="matrix" values="0 0 0 0 0.289581 0 0 0 0 0.112153 0 0 0 0 0.791667 0 0 0 1 0"/>
<feBlend mode="normal" in2="shape" result="effect1_innerShadow_48_179"/>
<feColorMatrix in="SourceAlpha" type="matrix" values="0 0 0 0 0 0 0 0 0 0 0 0 0 0 0 0 0 0 127 0" result="hardAlpha"/>
<feOffset dy="5"/>
<feGaussianBlur stdDeviation="4"/>
<feComposite in2="hardAlpha" operator="arithmetic" k2="-1" k3="1"/>
<feColorMatrix type="matrix" values="0 0 0 0 0.666667 0 0 0 0 0.47451 0 0 0 0 0.992157 0 0 0 1 0"/>
<feBlend mode="normal" in2="effect1_innerShadow_48_179" result="effect2_innerShadow_48_179"/>
</filter>
<filter id="filter4_f_48_179" x="666" y="324" width="1012" height="609" filterUnits="userSpaceOnUse" color-interpolation-filters="sRGB">
<feFlood flood-opacity="0" result="BackgroundImageFix"/>
<feBlend mode="normal" in="SourceGraphic" in2="BackgroundImageFix" result="shape"/>
<feGaussianBlur stdDeviation="4.5" result="effect1_foregroundBlur_48_179"/>
</filter>
<filter id="filter5_b_48_179" x="1015" y="271" width="168" height="81" filterUnits="userSpaceOnUse" color-interpolation-filters="sRGB">
<feFlood flood-opacity="0" result="BackgroundImageFix"/>
<feGaussianBlur in="BackgroundImage" stdDeviation="7"/>
<feComposite in2="SourceAlpha" operator="in" result="effect1_backgroundBlur_48_179"/>
<feBlend mode="normal" in="SourceGraphic" in2="effect1_backgroundBlur_48_179" result="shape"/>
</filter>
<filter id="filter6_b_48_179" x="1142" y="622" width="168" height="81" filterUnits="userSpaceOnUse" color-interpolation-filters="sRGB">
<feFlood flood-opacity="0" result="BackgroundImageFix"/>
<feGaussianBlur in="BackgroundImage" stdDeviation="7"/>
<feComposite in2="SourceAlpha" operator="in" result="effect1_backgroundBlur_48_179"/>
<feBlend mode="normal" in="SourceGraphic" in2="effect1_backgroundBlur_48_179" result="shape"/>
</filter>
<filter id="filter7_b_48_179" x="1484" y="210" width="168" height="81" filterUnits="userSpaceOnUse" color-interpolation-filters="sRGB">
<feFlood flood-opacity="0" result="BackgroundImageFix"/>
<feGaussianBlur in="BackgroundImage" stdDeviation="7"/>
<feComposite in2="SourceAlpha" operator="in" result="effect1_backgroundBlur_48_179"/>
<feBlend mode="normal" in="SourceGraphic" in2="effect1_backgroundBlur_48_179" result="shape"/>
</filter>
<linearGradient id="paint0_linear_48_179" x1="21.9406" y1="-3.30035e-05" x2="1733.46" y2="854.307" gradientUnits="userSpaceOnUse">
<stop stop-color="#3B31B4"/>
<stop offset="1" stop-color="#3026AF"/>
</linearGradient>
<linearGradient id="paint1_linear_48_179" x1="1080.59" y1="346.638" x2="1113.21" y2="334.126" gradientUnits="userSpaceOnUse">
<stop stop-color="white"/>
<stop offset="1" stop-color="white" stop-opacity="0"/>
</linearGradient>
<linearGradient id="paint2_linear_48_179" x1="1207.59" y1="697.638" x2="1240.21" y2="685.126" gradientUnits="userSpaceOnUse">
<stop stop-color="white"/>
<stop offset="1" stop-color="white" stop-opacity="0"/>
</linearGradient>
<linearGradient id="paint3_linear_48_179" x1="1549.59" y1="285.638" x2="1582.21" y2="273.126" gradientUnits="userSpaceOnUse">
<stop stop-color="white"/>
<stop offset="1" stop-color="white" stop-opacity="0"/>
</linearGradient>
</defs>
</svg>
